<svg width="38" height="32" viewBox="0 0 38 32" fill="none" xmlns="http://www.w3.org/2000/svg">
<path d="M5.352 22.624C4.44 22.624 3.584 22.416 2.784 22C1.984 21.6 1.376 20.984 0.96 20.152C0.704 19.672 0.576 19.168 0.576 18.64C0.576 18.32 0.648 18.024 0.792 17.752C0.952 17.464 1.208 17.32 1.56 17.32C1.8 17.32 2.152 17.4 2.616 17.56C3.08 17.72 3.592 17.928 4.152 18.184C4.728 18.424 5.296 18.68 5.856 18.952C6.432 19.224 6.952 19.48 7.416 19.72C7.88 19.96 8.24 20.144 8.496 20.272C9.008 19.488 9.464 18.608 9.864 17.632C10.264 16.656 10.632 15.64 10.968 14.584C11.32 13.528 11.68 12.488 12.048 11.464C12.416 10.424 12.832 9.448 13.296 8.536C13.76 7.624 14.312 6.832 14.952 6.16C13.832 6.016 12.72 5.944 11.616 5.944C10.928 5.944 10.152 5.984 9.288 6.064C8.424 6.128 7.536 6.264 6.624 6.472C5.712 6.664 4.848 6.936 4.032 7.288C3.216 7.64 2.512 8.088 1.92 8.632C1.344 9.176 0.952 9.848 0.744 10.648C0.696 10.856 0.672 11.072 0.672 11.296C0.672 11.696 0.752 12.072 0.912 12.424C1.072 12.776 1.352 13.016 1.752 13.144H1.824C1.952 13.144 2.072 13.136 2.184 13.12C2.312 13.088 2.432 13.072 2.544 13.072C2.56 13.072 2.592 13.08 2.64 13.096C2.688 13.096 2.712 13.112 2.712 13.144C2.712 13.256 2.624 13.344 2.448 13.408C2.272 13.472 2.144 13.504 2.064 13.504C1.792 13.504 1.56 13.44 1.368 13.312C1.176 13.184 1.024 13.12 0.912 13.12H0.84C0.808 13.152 0.784 13.192 0.768 13.24C0.752 13.288 0.712 13.312 0.648 13.312C0.552 13.312 0.464 13.232 0.384 13.072C0.304 12.896 0.24 12.712 0.192 12.52C0.144 12.312 0.12 12.168 0.12 12.088C0.12 11.912 0.128 11.736 0.144 11.56C0.176 11.368 0.208 11.184 0.24 11.008C0.464 10.064 0.872 9.248 1.464 8.56C2.072 7.872 2.792 7.296 3.624 6.832C4.472 6.368 5.376 6 6.336 5.728C7.312 5.456 8.28 5.264 9.24 5.152C10.216 5.024 11.12 4.96 11.952 4.96C12.624 4.96 13.296 4.984 13.968 5.032C14.64 5.08 15.304 5.168 15.96 5.296C16.504 4.928 17.072 4.616 17.664 4.36C18.256 4.104 18.88 3.976 19.536 3.976C19.664 3.976 19.784 3.984 19.896 4C20.008 4.016 20.12 4.048 20.232 4.096C20.312 4.112 20.448 4.176 20.64 4.288C20.832 4.384 20.928 4.48 20.928 4.576C20.928 4.672 20.888 4.72 20.808 4.72C20.744 4.704 20.712 4.744 20.712 4.84C20.712 4.952 20.768 5.104 20.88 5.296C20.992 5.472 21.048 5.688 21.048 5.944C21.048 6.04 21.016 6.184 20.952 6.376C20.888 6.552 20.792 6.64 20.664 6.64C20.616 6.64 20.592 6.592 20.592 6.496C20.592 6.368 20.608 6.232 20.64 6.088C20.688 5.944 20.712 5.808 20.712 5.68C20.712 5.648 20.696 5.592 20.664 5.512C20.632 5.432 20.608 5.376 20.592 5.344C20.432 5.04 20.168 4.824 19.8 4.696C19.448 4.568 19.112 4.504 18.792 4.504C18.392 4.504 18.04 4.608 17.736 4.816C17.432 5.024 17.136 5.248 16.848 5.488C17.792 5.744 18.696 6.136 19.56 6.664C20.424 7.176 21.192 7.8 21.864 8.536C22.552 9.272 23.096 10.096 23.496 11.008C23.896 11.904 24.096 12.872 24.096 13.912C24.096 14.888 23.896 15.8 23.496 16.648C23.112 17.496 22.576 18.264 21.888 18.952C21.216 19.624 20.448 20.208 19.584 20.704C18.736 21.184 17.848 21.552 16.92 21.808C15.992 22.064 15.08 22.192 14.184 22.192C13.256 22.192 12.336 22.104 11.424 21.928C10.528 21.736 9.648 21.48 8.784 21.16C8.336 21.608 7.808 21.96 7.2 22.216C6.592 22.488 5.976 22.624 5.352 22.624ZM14.184 21.592C15.32 21.592 16.408 21.424 17.448 21.088C18.488 20.752 19.416 20.256 20.232 19.6C21.064 18.944 21.712 18.144 22.176 17.2C22.656 16.256 22.896 15.176 22.896 13.96C22.896 13 22.696 12.112 22.296 11.296C21.912 10.464 21.392 9.712 20.736 9.04C20.08 8.368 19.336 7.808 18.504 7.36C17.672 6.896 16.824 6.56 15.96 6.352C15.64 6.768 15.328 7.288 15.024 7.912C14.72 8.52 14.424 9.168 14.136 9.856C13.864 10.528 13.608 11.2 13.368 11.872C13.144 12.528 12.936 13.112 12.744 13.624C12.312 14.856 11.824 16.056 11.28 17.224C10.736 18.392 10.08 19.512 9.312 20.584C10.08 20.872 10.872 21.112 11.688 21.304C12.52 21.496 13.352 21.592 14.184 21.592ZM5.76 22.096C6.224 22.096 6.648 21.968 7.032 21.712C7.416 21.456 7.752 21.16 8.04 20.824C7.736 20.648 7.32 20.416 6.792 20.128C6.28 19.84 5.736 19.552 5.16 19.264C4.584 18.976 4.032 18.736 3.504 18.544C2.992 18.352 2.568 18.256 2.232 18.256C2.056 18.256 1.896 18.296 1.752 18.376C1.624 18.456 1.56 18.608 1.56 18.832C1.56 19.168 1.696 19.52 1.968 19.888C2.256 20.256 2.584 20.592 2.952 20.896C3.336 21.2 3.664 21.424 3.936 21.568C4.416 21.824 4.936 21.992 5.496 22.072C5.56 22.088 5.648 22.096 5.76 22.096Z" fill="white"/>
<path d="M24.1151 22.055C23.9422 22.055 23.7866 22.0243 23.6481 21.9627C23.5108 21.9 23.4019 21.8076 23.3214 21.6857C23.2421 21.5638 23.2024 21.4135 23.2024 21.2347C23.2024 21.0808 23.2308 20.9536 23.2876 20.853C23.3445 20.7524 23.422 20.6719 23.5202 20.6115C23.6185 20.5511 23.7292 20.5056 23.8523 20.4748C23.9766 20.4428 24.105 20.4197 24.2376 20.4055C24.3974 20.389 24.527 20.3742 24.6264 20.3612C24.7259 20.3469 24.7981 20.3256 24.843 20.2972C24.8892 20.2676 24.9123 20.2221 24.9123 20.1605V20.1499C24.9123 20.0161 24.8726 19.9125 24.7933 19.8391C24.714 19.7657 24.5998 19.729 24.4506 19.729C24.2932 19.729 24.1683 19.7634 24.076 19.832C23.9848 19.9007 23.9233 19.9818 23.8913 20.0753L23.2912 19.9901C23.3385 19.8243 23.4167 19.6858 23.5256 19.5746C23.6345 19.4621 23.7676 19.3781 23.9251 19.3224C24.0825 19.2656 24.2565 19.2372 24.4471 19.2372C24.5785 19.2372 24.7093 19.2526 24.8395 19.2834C24.9697 19.3142 25.0887 19.3651 25.1964 19.4361C25.3041 19.5059 25.3905 19.6012 25.4556 19.7219C25.5219 19.8427 25.555 19.9936 25.555 20.1747V22H24.9371V21.6254H24.9158C24.8768 21.7011 24.8217 21.7721 24.7507 21.8384C24.6809 21.9035 24.5927 21.9562 24.4862 21.9964C24.3808 22.0355 24.2571 22.055 24.1151 22.055ZM24.282 21.5827C24.411 21.5827 24.5228 21.5573 24.6175 21.5064C24.7122 21.4543 24.785 21.3857 24.8359 21.3004C24.888 21.2152 24.9141 21.1223 24.9141 21.0217V20.7003C24.8939 20.7169 24.8596 20.7322 24.8111 20.7464C24.7637 20.7607 24.7105 20.7731 24.6513 20.7837C24.5921 20.7944 24.5335 20.8039 24.4755 20.8121C24.4175 20.8204 24.3672 20.8275 24.3246 20.8335C24.2287 20.8465 24.1429 20.8678 24.0671 20.8974C23.9914 20.927 23.9316 20.9684 23.8878 21.0217C23.844 21.0737 23.8221 21.1412 23.8221 21.2241C23.8221 21.3424 23.8653 21.4318 23.9517 21.4922C24.0381 21.5526 24.1482 21.5827 24.282 21.5827ZM26.2013 22V19.2727H26.8246V19.7273H26.853C26.9027 19.5698 26.9879 19.4485 27.1087 19.3633C27.2306 19.2769 27.3697 19.2337 27.5259 19.2337C27.5614 19.2337 27.6011 19.2354 27.6449 19.239C27.6899 19.2414 27.7272 19.2455 27.7567 19.2514V19.8427C27.7295 19.8332 27.6863 19.8249 27.6271 19.8178C27.5691 19.8095 27.5129 19.8054 27.4585 19.8054C27.3413 19.8054 27.2359 19.8308 27.1424 19.8817C27.0501 19.9315 26.9773 20.0007 26.924 20.0895C26.8707 20.1783 26.8441 20.2807 26.8441 20.3967V22H26.2013ZM28.1838 22V19.2727H28.807V19.7273H28.8354C28.8851 19.5698 28.9703 19.4485 29.0911 19.3633C29.213 19.2769 29.3521 19.2337 29.5083 19.2337C29.5439 19.2337 29.5835 19.2354 29.6273 19.239C29.6723 19.2414 29.7096 19.2455 29.7392 19.2514V19.8427C29.7119 19.8332 29.6687 19.8249 29.6096 19.8178C29.5516 19.8095 29.4953 19.8054 29.4409 19.8054C29.3237 19.8054 29.2183 19.8308 29.1248 19.8817C29.0325 19.9315 28.9597 20.0007 28.9064 20.0895C28.8532 20.1783 28.8265 20.2807 28.8265 20.3967V22H28.1838ZM31.2613 22.0533C30.9878 22.0533 30.7517 21.9964 30.5528 21.8828C30.3551 21.768 30.203 21.6058 30.0965 21.3963C29.99 21.1856 29.9367 20.9376 29.9367 20.6523C29.9367 20.3718 29.99 20.1256 30.0965 19.9137C30.2042 19.7006 30.3546 19.5349 30.5475 19.4165C30.7404 19.297 30.9671 19.2372 31.2275 19.2372C31.3956 19.2372 31.5542 19.2644 31.7034 19.3189C31.8537 19.3722 31.9863 19.455 32.1011 19.5675C32.2171 19.6799 32.3083 19.8232 32.3746 19.9972C32.4408 20.17 32.474 20.3759 32.474 20.6151V20.8121H30.2385V20.3789H31.8579C31.8567 20.2558 31.83 20.1463 31.778 20.0504C31.7259 19.9534 31.6531 19.877 31.5596 19.8214C31.4672 19.7657 31.3595 19.7379 31.2364 19.7379C31.105 19.7379 30.9896 19.7699 30.8902 19.8338C30.7907 19.8965 30.7132 19.9794 30.6576 20.0824C30.6031 20.1842 30.5753 20.296 30.5741 20.418V20.7962C30.5741 20.9548 30.6031 21.0909 30.6611 21.2045C30.7191 21.317 30.8002 21.4034 30.9044 21.4638C31.0086 21.523 31.1305 21.5526 31.2702 21.5526C31.3637 21.5526 31.4483 21.5395 31.5241 21.5135C31.5998 21.4863 31.6655 21.4466 31.7211 21.3945C31.7768 21.3424 31.8188 21.2779 31.8472 21.201L32.4474 21.2685C32.4095 21.4271 32.3373 21.5656 32.2307 21.6839C32.1254 21.8011 31.9904 21.8923 31.8259 21.9574C31.6614 22.0213 31.4732 22.0533 31.2613 22.0533ZM33.6605 20.402V22H33.0178V19.2727H33.6321V19.7362H33.6641C33.7268 19.5835 33.8268 19.4621 33.9641 19.3722C34.1026 19.2822 34.2737 19.2372 34.4773 19.2372C34.6655 19.2372 34.8294 19.2775 34.9691 19.358C35.11 19.4384 35.2189 19.555 35.2958 19.7077C35.3739 19.8604 35.4124 20.0457 35.4112 20.2635V22H34.7685V20.3629C34.7685 20.1806 34.7211 20.038 34.6264 19.935C34.5329 19.832 34.4033 19.7805 34.2376 19.7805C34.1251 19.7805 34.0251 19.8054 33.9375 19.8551C33.8511 19.9036 33.783 19.9741 33.7333 20.0664C33.6848 20.1587 33.6605 20.2706 33.6605 20.402ZM36.4606 22.0391C36.3529 22.0391 36.2605 22.0012 36.1836 21.9254C36.1067 21.8497 36.0688 21.7573 36.07 21.6484C36.0688 21.5419 36.1067 21.4508 36.1836 21.375C36.2605 21.2992 36.3529 21.2614 36.4606 21.2614C36.5647 21.2614 36.6553 21.2992 36.7322 21.375C36.8104 21.4508 36.85 21.5419 36.8512 21.6484C36.85 21.7206 36.8311 21.7863 36.7944 21.8455C36.7589 21.9047 36.7115 21.9521 36.6523 21.9876C36.5943 22.0219 36.5304 22.0391 36.4606 22.0391Z" fill="white"/>
</svg>
